HIERARCHY
ROOT SpineBase
{
  OFFSET 0.000000 0.000000 0.000000
  CHANNELS 6 Xposition Yposition Zposition Zrotation Xrotation Yrotation
  JOINT SpineMid
  {
    OFFSET 0.000000 31.295779 0.000000
    CHANNELS 3 Zrotation Xrotation Yrotation
    JOINT SpineShoulder
    {
      OFFSET -0.060932 23.384482 -0.931861
      CHANNELS 3 Zrotation Xrotation Yrotation
      JOINT Neck
      {
        OFFSET 0.027067 7.777888 -0.639579
        CHANNELS 3 Zrotation Xrotation Yrotation
        JOINT Head
        {
          OFFSET -1.961146 12.429803 1.173810
          CHANNELS 3 Zrotation Xrotation Yrotation
          End Site
          {
            OFFSET 0 0 0
          }
        }
      }
      JOINT ShoulderLeft
      {
        OFFSET -13.770220 -4.121409 2.614412
        CHANNELS 3 Zrotation Xrotation Yrotation
        JOINT ElbowLeft
        {
          OFFSET -2.981763 -16.369003 8.172394
          CHANNELS 3 Zrotation Xrotation Yrotation
          JOINT WristLeft
          {
            OFFSET -1.615571 -18.434231 4.537398
            CHANNELS 3 Zrotation Xrotation Yrotation
            JOINT HandLeft
            {
              OFFSET -1.702929 -17.739141 2.407568
              CHANNELS 3 Zrotation Xrotation Yrotation
              JOINT HandTipLeft
              {
                OFFSET -0.062238 -2.843268 -0.317364
                CHANNELS 3 Zrotation Xrotation Yrotation
                End Site
                {
                  OFFSET 0 0 0
                }
              }
              JOINT ThumbLeft
              {
                OFFSET 1.001261 1.445157 -2.958772
                CHANNELS 3 Zrotation Xrotation Yrotation
                End Site
                {
                  OFFSET 0 0 0
                }
              }
            }
          }
        }
      }
      JOINT ShoulderRight
      {
        OFFSET 13.757422 -3.838203 -8.049292
        CHANNELS 3 Zrotation Xrotation Yrotation
        JOINT ElbowRight
        {
          OFFSET 8.241235 -17.439099 0.781237
          CHANNELS 3 Zrotation Xrotation Yrotation
          JOINT WristRight
          {
            OFFSET 1.451341 14.076838 13.187404
            CHANNELS 3 Zrotation Xrotation Yrotation
            JOINT HandRight
            {
              OFFSET 0.467145 4.546107 4.741453
              CHANNELS 3 Zrotation Xrotation Yrotation
              JOINT HandTipRight
              {
                OFFSET 0.684938 2.068866 0.159161
                CHANNELS 3 Zrotation Xrotation Yrotation
                End Site
                {
                  OFFSET 0 0 0
                }
              }
              JOINT ThumbRight
              {
                OFFSET 1.119527 2.646500 -1.578880
                CHANNELS 3 Zrotation Xrotation Yrotation
                End Site
                {
                  OFFSET 0 0 0
                }
              }
            }
          }
        }
      }
    }
  }
  JOINT HipLeft
  {
    OFFSET -5.738228 1.007524 -1.225417
    CHANNELS 3 Zrotation Xrotation Yrotation
    JOINT KneeLeft
    {
      OFFSET -5.260768 -27.674435 0.883491
      CHANNELS 3 Zrotation Xrotation Yrotation
      JOINT AnkleLeft
      {
        OFFSET -1.794226 -31.333863 0.147596
        CHANNELS 3 Zrotation Xrotation Yrotation
        JOINT FootLeft
        {
          OFFSET -2.687908 -2.338068 -11.058664
          CHANNELS 3 Zrotation Xrotation Yrotation
          End Site
          {
            OFFSET 0 0 0
          }
        }
      }
    }
  }
  JOINT HipRight
  {
    OFFSET 6.524360 2.295592 -4.978463
    CHANNELS 3 Zrotation Xrotation Yrotation
    JOINT KneeRight
    {
      OFFSET 2.643269 -28.304541 -5.177138
      CHANNELS 3 Zrotation Xrotation Yrotation
      JOINT AnkleRight
      {
        OFFSET -3.289128 -31.129649 -3.830250
        CHANNELS 3 Zrotation Xrotation Yrotation
        JOINT FootRight
        {
          OFFSET -2.479468 -2.525627 -10.188122
          CHANNELS 3 Zrotation Xrotation Yrotation
          End Site
          {
            OFFSET 0 0 0
          }
        }
      }
    }
  }
}
MOTION
Frames: 13
Frame Time: 0.033333
-32.402404 64.722186 228.125303 0.076416 1.433508 20.285597 -0.221648 0.903459 -20.303835 0.021199 0.211409 -0.030133 -0.500699 2.670188 0.941874 0.000000 0.000000 0.000000 0.296309 8.387684 -2.074232 1.873350 -6.210352 2.357955 0.957913 -7.793280 0.876048 -6.200023 8.505408 0.121949 0.000000 0.000000 0.000000 0.000000 0.000000 0.000000 -7.667377 7.946590 5.184230 -128.924489 44.678527 124.729585 8.816774 -12.495403 2.285883 -35.556850 34.386449 -105.668999 0.000000 0.000000 0.000000 0.000000 0.000000 0.000000 0.051174 -3.046460 -19.963943 -1.172942 1.412639 -0.291083 -0.278877 0.368632 0.880275 0.000000 0.000000 0.000000 -0.777209 -3.232596 -20.562255 0.293562 0.243484 0.332490 0.702770 -8.021952 5.509328 0.000000 0.000000 0.000000
-32.435743 64.714774 228.168946 0.132569 1.487964 19.838076 -0.202838 0.844262 -19.853325 0.041026 0.190937 -0.024129 -0.245294 3.230449 0.981574 0.000000 0.000000 0.000000 0.385993 8.377329 -1.985509 2.050501 -6.215759 2.385267 2.993433 -2.934775 0.685803 -8.935555 9.582224 -0.085659 0.000000 0.000000 0.000000 0.000000 0.000000 0.000000 -7.151401 7.469113 4.880988 -131.768637 41.422870 126.897913 10.324671 -12.829392 3.017487 -32.137066 34.901232 -108.145609 0.000000 0.000000 0.000000 0.000000 0.000000 0.000000 0.070741 -3.082034 -19.516118 -1.237457 1.393870 -0.288952 -0.248941 0.379275 0.729006 0.000000 0.000000 0.000000 -0.701637 -3.198424 -20.117136 0.214001 0.092555 0.344370 2.211336 -13.574778 7.311066 0.000000 0.000000 0.000000
-32.538792 64.709515 228.234176 0.147657 1.551162 18.860364 -0.248017 0.832573 -18.876617 0.021721 0.217391 -0.026814 -0.212391 3.609418 1.057115 0.000000 0.000000 0.000000 1.008345 8.253430 -1.693197 1.829342 -6.167349 2.167894 6.453324 6.498703 -0.293048 -14.579943 2.187819 -1.042800 0.000000 0.000000 0.000000 0.000000 0.000000 0.000000 -6.304804 7.050801 4.668159 -131.701948 40.667626 126.043782 13.164496 -12.423315 4.243911 -33.694184 35.982639 -108.758164 0.000000 0.000000 0.000000 0.000000 0.000000 0.000000 0.196104 -3.224982 -18.518559 -1.367390 1.445082 -0.300565 -0.000000 0.000000 0.000000 0.000000 0.000000 0.000000 -0.450544 -3.080456 -19.135501 -0.035443 -0.060885 0.355759 1.650569 -10.854892 5.368231 0.000000 0.000000 0.000000
-32.775290 64.691025 228.393180 0.249936 1.510327 17.697327 -0.201277 0.737436 -17.707224 0.082476 0.178968 -0.012322 0.732274 4.305477 0.986049 0.000000 0.000000 0.000000 1.205383 8.547901 -1.545850 1.635810 -6.394666 2.042591 10.192407 17.741221 -2.358085 -20.423821 -4.448376 -3.273536 0.000000 0.000000 0.000000 0.000000 0.000000 0.000000 -5.275616 6.571982 4.299322 -129.277927 43.708458 122.802521 15.265406 -11.120473 4.826151 -35.087279 37.628613 -103.963553 0.000000 0.000000 0.000000 0.000000 0.000000 0.000000 0.479315 -3.219449 -17.338943 -1.676608 1.420885 -0.302132 -0.000000 0.000000 0.000000 0.000000 0.000000 0.000000 -0.015575 -2.900761 -18.005646 -0.410078 -0.402804 0.417905 3.666525 -17.898085 8.103639 0.000000 0.000000 0.000000
-33.148847 64.636842 228.694202 0.467625 1.317210 16.131747 -0.195515 0.649554 -16.133701 0.094149 0.133668 0.001326 2.457638 5.043370 0.775507 0.000000 0.000000 0.000000 2.482976 9.120820 -0.923985 0.539642 -6.499239 1.334057 12.508331 28.043079 -5.162209 -17.653464 4.280980 -4.119780 0.000000 0.000000 0.000000 0.000000 0.000000 0.000000 -3.443896 6.280269 3.956790 -131.782752 45.657470 123.758959 16.253623 -10.395683 5.222173 -31.299488 39.957709 -101.966150 0.000000 0.000000 0.000000 0.000000 0.000000 0.000000 0.893099 -2.952832 -15.772928 -2.138172 1.283374 -0.287373 -0.000000 0.000000 0.000000 0.000000 0.000000 0.000000 0.679428 -2.431581 -16.504562 -0.939013 -0.870291 0.493751 2.171288 -13.160347 5.909161 0.000000 0.000000 0.000000
-33.699404 64.569395 229.084959 0.636731 1.055409 14.698028 -0.266309 0.582914 -14.695773 -0.005912 0.095384 -0.000731 4.471961 5.420024 0.495011 0.000000 0.000000 0.000000 3.723645 9.968257 -0.478048 -0.153523 -6.778644 0.881390 19.833062 37.744648 -9.627329 -17.480795 11.300090 -6.989933 0.000000 0.000000 0.000000 0.000000 0.000000 0.000000 -1.876733 5.471281 3.364541 -134.250538 46.780728 125.225773 17.264813 -10.669764 5.449586 -29.846320 40.355802 -98.635203 0.000000 0.000000 0.000000 0.000000 0.000000 0.000000 1.798172 -2.630435 -14.333638 -3.036852 1.049415 -0.267379 0.128690 0.343447 -0.991111 0.000000 0.000000 0.000000 1.711323 -1.735330 -15.168242 -1.659463 -1.594940 0.590863 3.860669 -19.345450 8.289330 0.000000 0.000000 0.000000
-34.128043 64.447952 229.621042 1.254038 0.569471 12.902712 0.145676 0.342308 -12.858023 0.255101 -0.055413 0.074320 6.255816 5.466139 -0.187460 0.000000 0.000000 0.000000 3.639587 11.294761 -0.254913 -0.841273 -7.176646 0.459860 24.322668 43.031492 -13.238578 -16.686488 2.684340 -7.577895 0.000000 0.000000 0.000000 0.000000 0.000000 0.000000 -1.569336 4.889172 2.593801 -134.456636 46.951822 124.217381 21.800534 -9.493891 6.753653 -34.370322 37.305243 -95.118018 0.000000 0.000000 0.000000 0.000000 0.000000 0.000000 2.207502 -1.693382 -12.616727 -3.780921 0.604416 -0.214386 0.365481 0.201919 -1.952143 0.000000 0.000000 0.000000 2.088527 -0.845552 -13.493315 -2.255192 -1.912262 0.659538 3.510146 -18.576425 6.962966 0.000000 0.000000 0.000000
-34.355994 64.294056 230.211058 2.223441 -0.012915 11.329585 0.644283 0.186119 -11.223327 0.587852 -0.219160 0.174893 9.004737 5.134115 -1.159368 0.000000 0.000000 0.000000 3.078457 13.032384 -0.206734 -1.531183 -8.231607 0.158775 19.519569 36.333378 -9.626779 -14.946606 1.220482 -5.907993 0.000000 0.000000 0.000000 0.000000 0.000000 0.000000 -1.905848 3.903790 1.603494 -135.555560 47.314959 124.392421 26.449833 -7.665520 7.931110 -36.576124 32.376254 -90.262788 0.000000 0.000000 0.000000 0.000000 0.000000 0.000000 1.929565 -0.423317 -11.177302 -4.198413 0.059559 -0.142242 0.602503 -0.014874 -2.850984 0.000000 0.000000 0.000000 2.278034 -0.689535 -12.171595 -3.573110 -0.613353 0.831291 1.703862 -11.854601 3.469088 0.000000 0.000000 0.000000
-34.333741 64.094407 230.800452 3.570020 -0.704073 9.349189 1.329934 -0.043228 -9.146742 0.823912 -0.367073 0.294040 11.366233 4.533362 -2.233435 0.000000 0.000000 0.000000 2.029948 14.330603 -0.088887 -2.271698 -8.595181 -0.301116 15.839253 29.443355 -6.845745 -16.089433 0.276728 -5.195447 0.000000 0.000000 0.000000 0.000000 0.000000 0.000000 -2.367538 2.970033 0.566238 -137.404841 47.739139 124.952683 31.954573 -5.293238 9.020957 -42.994023 27.345410 -87.414601 0.000000 0.000000 0.000000 0.000000 0.000000 0.000000 0.764446 0.958830 -9.306811 -4.507581 0.544014 -0.129916 1.284198 -1.170226 -4.165297 0.000000 0.000000 0.000000 2.083994 -0.466852 -10.445411 -4.966108 1.107000 1.007842 2.978481 -15.801984 2.149037 0.000000 0.000000 0.000000
-34.100344 63.828957 231.414433 5.550345 -1.538644 7.561832 2.021809 -0.301237 -7.209036 0.915264 -0.448563 0.429063 13.465121 3.726773 -3.398624 0.000000 0.000000 0.000000 0.628524 15.807335 0.008282 -3.073441 -8.946947 -0.806627 10.361785 18.265875 -3.470193 -10.695731 16.476646 -4.150330 0.000000 0.000000 0.000000 0.000000 0.000000 0.000000 -2.759806 1.863416 -0.585445 -136.755097 46.263526 122.380003 40.053814 -0.505691 9.736650 -48.651955 23.381990 -86.021307 0.000000 0.000000 0.000000 0.000000 0.000000 0.000000 -1.519494 2.536602 -7.570606 -4.276560 0.461949 -0.071002 1.929468 -1.800636 -5.890640 0.000000 0.000000 0.000000 1.328862 -0.983422 -8.953661 -7.124360 4.097627 1.430408 5.115090 -21.359494 0.771601 0.000000 0.000000 0.000000
-33.652440 63.529632 231.951240 7.931017 -2.405115 5.627376 2.519064 -0.488078 -5.075278 0.863751 -0.445754 0.557474 14.840266 2.651906 -4.416985 0.000000 0.000000 0.000000 -0.386152 16.695182 0.416119 -4.287907 -8.839326 -1.671453 2.737603 11.518600 -2.447074 -3.520833 28.286940 -3.096430 0.000000 0.000000 0.000000 0.000000 0.000000 0.000000 -3.099275 0.734073 -1.656501 -137.380146 45.442039 121.010397 40.280278 3.555470 8.615490 -44.473031 20.354076 -84.014073 0.000000 0.000000 0.000000 0.000000 0.000000 0.000000 -4.910765 3.811025 -5.506308 -3.488046 0.772636 -0.034134 2.648370 -2.528429 -7.945126 0.000000 0.000000 0.000000 0.260767 -1.926792 -7.271311 -9.120538 7.160624 2.018812 4.822998 -17.885091 -3.532061 0.000000 0.000000 0.000000
-33.086415 63.240695 232.393144 10.582291 -3.235603 3.948372 2.742435 -0.594344 -3.150779 0.692577 -0.372574 0.670875 16.429558 1.314293 -5.328723 0.000000 0.000000 0.000000 -1.257651 17.163170 0.934201 -5.598611 -8.477088 -2.626527 1.248709 6.279419 -1.732782 -2.139459 34.441387 -3.802933 0.000000 0.000000 0.000000 0.000000 0.000000 0.000000 -3.327215 -0.925103 -2.783931 -138.962293 45.425992 120.661250 38.563658 6.660111 7.203014 -39.564211 15.264957 -79.340844 0.000000 0.000000 0.000000 0.000000 0.000000 0.000000 -8.929304 4.681619 -3.522736 -2.469298 1.330127 -0.016334 3.409264 -3.290819 -10.068711 0.000000 0.000000 0.000000 -1.151651 -3.199251 -5.733361 -10.887763 10.237079 2.703054 4.267274 -11.985858 -7.623023 0.000000 0.000000 0.000000
-32.849468 63.014457 232.817989 12.585848 -3.974127 2.319469 2.622441 -0.556375 -1.312350 0.520496 -0.293722 0.737389 18.426338 0.322811 -6.031176 0.000000 0.000000 0.000000 -1.594445 17.520018 1.334680 -6.556915 -8.132472 -3.333709 -0.154006 3.409539 -1.481023 -0.791986 35.156499 -3.979206 0.000000 0.000000 0.000000 0.000000 0.000000 0.000000 -3.035582 -2.574452 -3.697330 -139.308084 45.608222 119.510686 35.678326 7.170057 5.898131 -36.351335 14.055429 -75.536754 0.000000 0.000000 0.000000 0.000000 0.000000 0.000000 -12.057826 5.166503 -1.574735 -1.489972 1.825509 -0.008753 3.783905 -3.923484 -11.635691 0.000000 0.000000 0.000000 -1.687434 -3.914309 -4.224872 -12.536493 12.246656 3.294467 4.264441 -10.038449 -9.707291 0.000000 0.000000 0.000000
